Coordinates
version=1
nRows=17
nColumns=36
inDegrees=yes

Units are S.I. units (second, meters, Newtons, ...)
Angles are in degrees.

endheader
time	pelvis_tilt	pelvis_list	pelvis_rotation	pelvis_tx	pelvis_ty	pelvis_tz	hip_flexion_r	hip_adduction_r	hip_rotation_r	knee_angle_r	ankle_angle_r	subtalar_angle_r	hip_flexion_l	hip_adduction_l	hip_rotation_l	knee_angle_l	ankle_angle_l	subtalar_angle_l	lumbar_extension	lumbar_bending	lumbar_rotation	arm_flex_r	arm_add_r	arm_rot_r	elbow_flex_r	pro_sup_r	wrist_flex_r	wrist_dev_r	arm_flex_l	arm_add_l	arm_rot_l	elbow_flex_l	pro_sup_l	wrist_flex_l	wrist_dev_l
      1.75000000	     -1.58762015	      2.87492201	     -0.21418882	     -1.01648764	      0.92611877	     -0.23578033	     28.81485144	     -1.49194812	     -2.86475070	    -45.18109641	      1.08822325	    -11.19887309	      0.10427153	      6.90479236	      6.49485250	    -15.56543080	     11.49266538	     -0.71757044	     -6.27426540	     -0.96224707	     -6.83506800	     -7.83002214	    -17.21638125	      4.07096503	     24.14668020	     86.51662706	      0.00000000	      0.00000000	     -0.68342042	    -18.43407880	     14.15387905	     28.88076776	     86.51662706	      0.00000000	      0.00000000
      1.76000000	     -1.52810378	      2.80918497	     -0.07459973	     -1.00455457	      0.92544657	     -0.23508063	     29.00380192	     -1.57014564	     -3.25792952	    -41.78829138	      1.26787032	    -10.87230044	     -1.21588444	      6.72700480	      6.67162914	    -14.77514857	     11.77447171	     -0.50663548	     -6.36700604	     -0.89693883	     -7.18845928	     -8.02135921	    -17.10002955	      3.96708068	     23.72490306	     86.51662706	      0.00000000	      0.00000000	     -0.21494912	    -18.66415948	     14.28163526	     29.40580081	     86.51662706	      0.00000000	      0.00000000
      1.77000000	     -1.39384041	      2.73769685	      0.04313401	     -0.99259723	      0.92475923	     -0.23429208	     29.00546317	     -1.62407177	     -3.65547130	    -38.26319258	      1.43913515	    -10.26401070	     -2.60669979	      6.53295007	      6.77289327	    -14.00691653	     12.01254308	     -0.27835327	     -6.55054135	     -0.82144687	     -7.49953953	     -8.17910234	    -16.98547725	      3.84219019	     23.30135752	     86.51662706	      0.00000000	      0.00000000	      0.23617921	    -18.88952618	     14.25073780	     30.01393932	     86.51662706	      0.00000000	      0.00000000
      1.78000000	     -1.20763616	      2.66546217	      0.14564154	     -0.98058381	      0.92404215	     -0.23342081	     28.85383640	     -1.65924491	     -4.06772295	    -34.65584692	      1.60930683	     -9.36835039	     -4.03739345	      6.32666497	      6.81419188	    -13.27516187	     12.21315271	     -0.02840083	     -6.79554815	     -0.74439727	     -7.77655594	     -8.31310882	    -16.87163840	      3.70746722	     22.87807992	     86.51662706	      0.00000000	      0.00000000	      0.67098321	    -19.10450212	     14.10181001	     30.67127162	     86.51662706	      0.00000000	      0.00000000
      1.79000000	     -0.99576127	      2.59818330	      0.24038609	     -0.96846246	      0.92326965	     -0.23248627	     28.59372034	     -1.68085831	     -4.50906955	    -31.03456416	      1.78710129	     -8.19056586	     -5.47034991	      6.11327832	      6.81468716	    -12.59995507	     12.38352346	      0.24548676	     -7.06653744	     -0.67442634	     -8.02854804	     -8.43395951	    -16.75731262	      3.57582606	     22.45735397	     86.51662706	      0.00000000	      0.00000000	      1.09072525	    -19.30292241	     13.88264903	     31.33812619	     86.51662706	      0.00000000	      0.00000000
      1.80000000	     -0.78241939	      2.54040548	      0.33353552	     -0.95619662	      0.92240889	     -0.23151394	     28.27422896	     -1.69203463	     -4.99420598	    -27.47867968	      1.98140061	     -6.75579324	     -6.86763948	      5.89799449	      6.79345623	    -12.00486245	     12.53012361	      0.54156275	     -7.32963591	     -0.61739176	     -8.26319756	     -8.54972068	    -16.64150949	      3.45907632	     22.04134630	     86.51662706	      0.00000000	      0.00000000	      1.49647145	    -19.48007003	     13.63739079	     31.97835247	     86.51662706	      0.00000000	      0.00000000
      1.81000000	     -0.58710435	      2.49386913	      0.42904561	     -0.94379347	      0.92142711	     -0.23051091	     27.94317328	     -1.69367176	     -5.53256231	    -24.07429953	      2.20034117	     -5.11380747	     -8.19476403	      5.68515148	      6.76712980	    -11.51544425	     12.65764520	      0.85412892	     -7.55820337	     -0.57529915	     -8.48617097	     -8.66429857	    -16.52365896	      3.36635100	     21.63211175	     86.51662706	      0.00000000	      0.00000000	      1.88837966	    -19.63366824	     13.39983228	     32.56516517	     86.51662706	      0.00000000	      0.00000000
      1.82000000	     -0.42344544	      2.45740680	      0.52916879	     -0.93128644	      0.92030488	     -0.22945777	     27.64181480	     -1.68493935	     -6.12211413	    -20.91153730	      2.45009450	     -3.33927938	     -9.42296806	      5.47766597	      6.74850937	    -11.15799282	     12.76864966	      1.17538474	     -7.73611374	     -0.54650913	     -8.70163324	     -8.77738014	    -16.40375405	      3.30355172	     21.23181703	     86.51662706	      0.00000000	      0.00000000	      2.26477944	    -19.76384316	     13.19046292	     33.08384016	     86.51662706	      0.00000000	      0.00000000
      1.83000000	     -0.29823922	      2.42845071	      0.63576645	     -0.91869864	      0.91905259	     -0.22833426	     27.40052240	     -1.66387940	     -6.74478244	    -18.08151248	      2.73324437	     -1.52811452	    -10.53112501	      5.27705071	      6.74574572	    -10.95783566	     12.86380698	      1.49851263	     -7.85837651	     -0.52667297	     -8.91337793	     -8.88567938	    -16.28246362	      3.27354267	     20.84301093	     86.51662706	      0.00000000	      0.00000000	      2.62125617	    -19.87228626	     13.01652530	     33.53170648	     86.51662706	      0.00000000	      0.00000000
      1.84000000	     -0.21067391	      2.40421050	      0.75134939	     -0.90603154	      0.91771001	     -0.22713973	     27.23621653	     -1.62881732	     -7.36545627	    -15.67163628	      3.04689810	      0.20920460	    -11.50767194	      5.08366191	      6.76173888	    -10.93678593	     12.94250403	      1.82113026	     -7.92920963	     -0.50998755	     -9.12584339	     -8.98504972	    -16.16124487	      3.27682740	     20.46876050	     86.51662706	      0.00000000	      0.00000000	      2.94998934	    -19.96108359	     12.87424779	     33.91604430	     86.51662706	      0.00000000	      0.00000000
      1.85000000	     -0.15274080	      2.38175022	      0.87902619	     -0.89327263	      0.91631875	     -0.22588807	     27.15160214	     -1.58028429	     -7.93590668	    -13.75844906	      3.38050710	      1.75644521	    -12.35194303	      4.89657148	      6.79363937	    -11.10990482	     13.00346177	      2.14805749	     -7.95822233	     -0.49049293	     -9.34431327	     -9.07289798	    -16.04244846	      3.31245470	     20.11249349	     86.51662706	      0.00000000	      0.00000000	      3.23959727	    -20.03170647	     12.75231697	     34.25063425	     86.51662706	      0.00000000	      0.00000000
      1.86000000	     -0.11161118	      2.35791359	      1.02142973	     -0.88039893	      0.91489869	     -0.22460147	     27.13555968	     -1.52144603	     -8.40339052	    -12.39856675	      3.71322885	      3.00199104	    -13.07366251	      4.71296751	      6.83255922	    -11.48245537	     13.04496658	      2.49240507	     -7.95560568	     -0.46308876	     -9.57393298	     -9.15017644	    -15.92936255	      3.37892214	     19.77748425	     86.51662706	      0.00000000	      0.00000000	      3.47575808	    -20.08446166	     12.63569595	     34.55175305	     86.51662706	      0.00000000	      0.00000000
      1.87000000	     -0.07368579	      2.32948446	      1.17941070	     -0.86737404	      0.91346388	     -0.22330696	     27.16467440	     -1.45570836	     -8.72189454	    -11.61926615	      4.01109273	      3.85010075	    -13.68993252	      4.52762839	      6.86372883	    -12.04842779	     13.06433276	      2.87436953	     -7.92757948	     -0.42386350	     -9.81768232	     -9.22219118	    -15.82614773	      3.47489412	     19.46608035	     86.51662706	      0.00000000	      0.00000000	      3.64282253	    -20.11839523	     12.50904746	     34.83435177	     86.51662706	      0.00000000	      0.00000000
      1.88000000	     -0.02890889	      2.29288825	      1.35098617	     -0.85413887	      0.91204467	     -0.22202324	     27.20667736	     -1.38236695	     -8.86283247	    -11.41049571	      4.22527344	      4.23207635	    -14.22004070	      4.33302458	      6.86740346	    -12.79176383	     13.05622529	      3.31777898	     -7.87376019	     -0.36944416	    -10.07399617	     -9.29774047	    -15.73759642	      3.59961677	     19.17890130	     86.51662706	      0.00000000	      0.00000000	      3.72635530	    -20.13140622	     12.35928761	     35.10901234	     86.51662706	      0.00000000	      0.00000000
      1.89000000	      0.02601595	      2.24320208	      1.53041648	     -0.84060745	      0.91067242	     -0.22074594	     27.22652420	     -1.29262347	     -8.82200132	    -11.72050466	      4.29369739	      4.11588790	    -14.67966388	      4.11986221	      6.82070043	    -13.69058436	     13.00966574	      3.84508615	     -7.78773049	     -0.29524482	    -10.33503662	     -9.38661163	    -15.66862302	      3.75298518	     18.91430294	     86.51662706	      0.00000000	      0.00000000	      3.71613467	    -20.12031203	     12.17709818	     35.38008758	     86.51662706	      0.00000000	      0.00000000
      1.90000000	      0.08650473	      2.17321187	      1.70753693	     -0.82670327	      0.90934716	     -0.21945103	     27.19513079	     -1.16815120	     -8.62039651	    -12.45797605	      4.14809263	      3.51252226	    -15.07685855	      3.87707287	      6.70027822	    -14.72381297	     12.90398534	      4.47188692	     -7.66070839	     -0.19291599	    -10.58651969	     -9.49613344	    -15.62353533	      3.93529897	     18.66835429	     86.51662706	      0.00000000	      0.00000000	      3.60884057	    -20.08079018	     11.95747220	     35.64519953	     86.51662706	      0.00000000	      0.00000000
      1.91000000	      0.14309413	      2.07268885	      1.86832655	     -0.81241864	      0.90802438	     -0.21811908	     27.09979846	     -0.98324425	     -8.29796088	    -13.50311955	      3.72703182	      2.47747726	    -15.41089658	      3.59063433	      6.48563681	    -15.87841382	     12.70455071	      5.20215343	     -7.48669096	     -0.04811418	    -10.80950275	     -9.62794327	    -15.60532229	      4.14678677	     18.43543111	     86.51662706	      0.00000000	      0.00000000	      3.40956334	    -20.00735732	     11.69954257	     35.89601414	     86.51662706	      0.00000000	      0.00000000
